#N canvas 37 120 956 717 10;
#X declare -lib mrpeach;
#X obj 303 686 dac~;
#X obj 184 592 *~;
#X obj 577 15 cnv 15 250 180 empty empty SeaMixer 20 12 0 14 -233017
-66577 0;
#N canvas 65 79 553 679 wave3 0;
#X obj -34 343 *~;
#X obj 53 408 sig~;
#X obj -33 483 vcf~ 1;
#X obj 135 204 bng 15 250 50 0 empty empty empty 0 -6 0 8 -262144 -1
-1;
#X msg 12 157 220;
#X obj 181 112 t b b;
#X obj 247 139 random 2000;
#X msg 47 156 800;
#X msg 89 155 3500;
#X obj 24 272 az_vad~;
#X obj 131 643 hip~ 350;
#X obj 92 598 *~ 5.6;
#X obj -38 48 inlet~;
#X obj 262 21 inlet;
#X obj 250 652 outlet~;
#X obj 53 95 loadbang;
#X obj 146 62 spigot;
#X obj 45 546 *~;
#X obj 139 451 tgl 15 0 empty empty empty 0 -6 0 8 -262144 -1 -1 0
1;
#X obj 177 408 del 4300;
#X obj 187 201 del 4300;
#X obj 249 171 + 4300;
#X obj 161 503 line;
#X obj 143 280 t b b b;
#X msg 191 448 220;
#X msg 272 411 400 1600;
#X floatatom 171 556 5 0 0 0 - - -;
#X connect 0 0 2 0;
#X connect 1 0 2 1;
#X connect 2 0 17 0;
#X connect 3 0 9 0;
#X connect 3 0 16 0;
#X connect 4 0 1 0;
#X connect 5 0 20 0;
#X connect 5 1 6 0;
#X connect 6 0 21 0;
#X connect 7 0 9 1;
#X connect 8 0 9 2;
#X connect 9 0 0 1;
#X connect 10 0 14 0;
#X connect 11 0 10 0;
#X connect 12 0 0 0;
#X connect 13 0 5 0;
#X connect 13 0 16 1;
#X connect 15 0 7 0;
#X connect 15 0 8 0;
#X connect 15 0 4 0;
#X connect 16 0 5 0;
#X connect 17 0 11 0;
#X connect 18 0 17 1;
#X connect 19 0 18 0;
#X connect 19 0 24 0;
#X connect 20 0 3 0;
#X connect 20 0 23 0;
#X connect 21 0 20 1;
#X connect 22 0 1 0;
#X connect 22 0 26 0;
#X connect 23 0 19 0;
#X connect 23 1 18 0;
#X connect 23 2 25 0;
#X connect 24 0 22 0;
#X connect 25 0 22 0;
#X restore 297 134 pd wave3;
#X obj 331 8 tgl 15 0 empty empty empty 0 -6 0 8 -262144 -1 -1 1 1
;
#X obj 596 62 hsl 128 15 0 1 0 0 w1l w1lr wave1 -2 6 0 8 -62784 -241291
-258699 0 1;
#X obj 596 89 hsl 128 15 0 1 0 0 w2l w2lr wave2 -2 6 0 8 -62784 -241291
-258699 0 1;
#X obj 596 114 hsl 128 15 0 1 0 0 w3l w3lr wave3 -2 6 0 8 -62784 -241291
-258699 0 1;
#X obj 743 63 hsl 64 15 0 1 0 0 w1p w1pr w1_pan -2 6 0 8 -62784 -241291
-258699 0 1;
#X obj 743 90 hsl 64 15 0 1 0 0 w2p w2pr w2_pan -2 6 0 8 -62784 -241291
-258699 0 1;
#X obj 743 116 hsl 64 15 0 1 0 0 w3p w3pr w3_pan -2 6 0 8 -62784 -241291
-258699 0 1;
#X obj 596 139 hsl 128 15 0 1 0 0 bkgnl bkgnlr bkg -2 6 0 8 -62784
-241291 -258699 0 1;
#X msg 453 59 \; pd dsp 1;
#X msg 441 95 \; pd dsp 0;
#X obj 743 141 hsl 64 15 0 1 0 0 bkgp bkgpr bkg_pan -2 6 0 8 -62784
-241291 -258699 0 1;
#X text 363 6 <- on/off;
#X text 14 27 Beach ambient generator. AZ 2007;
#X text 15 7 Sea waves.;
#X obj 596 166 hsl 128 15 1 15 0 0 density densityr density -2 6 0
8 -62784 -241291 -258699 0 1;
#X obj 614 234 import mrpeach;
#X obj 745 264 unpackOSC;
#X floatatom 578 510 5 0 0 0 - - -;
#X floatatom 868 264 5 0 0 0 - - -;
#X obj 230 275 sig~;
#X floatatom 230 254 5 0 0 0 - - -;
#X floatatom 277 275 5 0 0 0 - - -;
#X obj 213 324 env~ 8192;
#X floatatom 213 346 5 0 0 0 - - -;
#X text 282 301 optional argument to initialize q;
#X obj 408 653 *~;
#X obj 561 540 / 600;
#X floatatom 259 502 5 0 0 0 - - -;
#X obj 286 420 / 127;
#X obj 286 471 sin;
#X obj 286 443 * 3.14;
#X obj 213 302 vcf~ 0.5;
#X obj 234 566 line;
#X floatatom 264 610 5 0 0 0 - - -;
#X obj 277 530 bng 15 250 50 0 empty empty empty 17 7 0 10 -262144
-1 -1;
#X floatatom 366 546 5 0 0 0 - - -;
#X obj 408 523 osc~ 40;
#X floatatom 456 641 5 0 0 0 - - -;
#X obj 136 393 hip~ 3000;
#X obj 254 225 + 200;
#X obj 276 194 * 9;
#X obj 719 371 route /oscTest;
#X floatatom 639 642 5 0 0 0 - - -;
#X obj 639 547 moses 3;
#X obj 16 373 lop~ 3000;
#X obj 16 349 *~;
#X obj 116 349 *~;
#X obj 639 690 s freq;
#X obj 41 201 r freq;
#X obj 42 229 sel 0 1;
#N canvas 30 428 622 299 select 0;
#X obj 96 40 inlet;
#X obj 266 40 inlet;
#X obj 103 189 outlet;
#X obj 253 189 outlet;
#X obj 96 139 line;
#X obj 256 139 line;
#X floatatom 153 169 5 0 0 0 - - -;
#X floatatom 300 166 5 0 0 0 - - -;
#X msg 312 102 0;
#X msg 142 102 1;
#X msg 94 100 0;
#X obj 371 56 expr (5 / $f1);
#X obj 370 18 r del;
#X msg 363 110 \$1;
#X obj 332 57 bng 15 250 50 0 empty empty empty 17 7 0 10 -262144 -1
-1;
#X obj 147 57 bng 15 250 50 0 empty empty empty 17 7 0 10 -262144 -1
-1;
#X msg 264 100 1;
#X connect 0 0 9 0;
#X connect 0 0 8 0;
#X connect 0 0 15 0;
#X connect 1 0 10 0;
#X connect 1 0 16 0;
#X connect 1 0 14 0;
#X connect 4 0 2 0;
#X connect 4 0 6 0;
#X connect 5 0 3 0;
#X connect 5 0 7 0;
#X connect 8 0 5 0;
#X connect 9 0 4 0;
#X connect 10 0 4 0;
#X connect 11 0 13 0;
#X connect 11 0 4 1;
#X connect 12 0 11 0;
#X connect 13 0 5 1;
#X connect 14 0 13 0;
#X connect 15 0 13 0;
#X connect 16 0 5 0;
#X restore 43 254 pd select;
#X obj 762 570 bng 15 250 50 0 empty empty empty 17 7 0 10 -262144
-1 -1;
#X obj 632 570 bng 15 250 50 0 empty empty empty 17 7 0 10 -262144
-1 -1;
#X obj 36 423 hip~ 3000;
#X obj 43 300 hsl 20 14 0 1 0 0 empty empty empty -2 -8 0 10 -262144
-1 -1 0 1;
#X obj 125 305 hsl 20 14 0 1 0 0 empty empty empty -2 -8 0 10 -262144
-1 -1 1900 1;
#X floatatom 16 276 5 0 0 0 - - -;
#X floatatom 118 280 5 0 0 0 - - -;
#X obj 639 667 change;
#X msg 639 618 1;
#X msg 762 619 0;
#X obj 763 595 del 300;
#X obj 633 595 del 300;
#X obj 429 612 line~ 50;
#X obj 471 560 bng 15 250 50 0 empty empty empty 17 7 0 10 -262144
-1 -1;
#X msg 473 584 50;
#X obj 366 498 / 10;
#N canvas 0 22 450 300 routing 0;
#X obj 131 16 inlet;
#X obj 126 147 sel 0 1;
#X obj 126 66 i;
#X obj 170 68 + 1;
#X floatatom 126 122 5 0 0 0 - - -;
#X msg 180 208 0;
#X msg 227 206 1;
#X obj 200 236 tgl 15 0 empty empty empty 17 7 0 10 -262144 -1 -1 0
1;
#X obj 202 265 outlet;
#X msg 80 208 0;
#X msg 127 206 1;
#X obj 100 236 tgl 15 0 empty empty empty 17 7 0 10 -262144 -1 -1 0
1;
#X obj 102 265 outlet;
#X obj 129 42 bng 15 250 50 0 empty empty empty 17 7 0 10 -262144 -1
-1;
#X obj 125 93 % 2;
#X connect 0 0 13 0;
#X connect 1 0 5 0;
#X connect 1 0 10 0;
#X connect 1 1 6 0;
#X connect 1 1 9 0;
#X connect 2 0 3 0;
#X connect 2 0 14 0;
#X connect 3 0 2 1;
#X connect 4 0 1 0;
#X connect 5 0 7 0;
#X connect 6 0 7 0;
#X connect 7 0 8 0;
#X connect 9 0 11 0;
#X connect 10 0 11 0;
#X connect 11 0 12 0;
#X connect 13 0 2 0;
#X connect 14 0 4 0;
#X restore 458 242 pd routing;
#X floatatom 664 319 5 0 0 0 - - -;
#X floatatom 630 428 5 0 0 0 - - -;
#X floatatom 562 420 5 0 0 0 - - -;
#X obj 553 443 s del;
#X obj 350 409 r del;
#X floatatom 306 578 5 0 0 0 - - -;
#X obj 348 442 expr (4 / $f1);
#X obj 815 543 expr (3 / $f1);
#X obj 795 428 r del;
#X obj 600 355 moses 0.2;
#X floatatom 279 552 5 0 0 0 - - -;
#X obj 324 471 i;
#X obj 363 680 *~;
#X obj 711 547 moses 125;
#X obj 185 641 *~ 1;
#X obj 443 19 loadbang;
#X obj 118 169 readsf~;
#X msg 83 68 open lol.wav;
#X obj 240 33 t b b;
#X msg 172 107 start;
#X obj 236 5 bng 15 250 50 0 empty empty empty 17 7 0 10 -262144 -1
-1;
#X obj 803 475 + 0.01;
#X msg 314 64 \; restart;
#X obj 504 171 tgl 15 0 empty empty empty 17 7 0 10 -262144 -1 -1 0
1;
#X obj 602 257 bng 15 250 50 0 empty empty empty 17 7 0 10 -262144
-1 -1;
#X obj 866 231 bng 15 250 50 0 empty empty empty 17 7 0 10 -262144
-1 -1;
#X msg 843 82 status;
#X obj 597 289 del 300;
#X msg 860 172 port 9002;
#X obj 744 212 udpreceive 9001;
#X connect 1 0 86 0;
#X connect 20 0 45 0;
#X connect 21 0 30 0;
#X connect 21 0 32 0;
#X connect 21 0 44 0;
#X connect 21 0 47 0;
#X connect 21 0 85 0;
#X connect 23 0 35 1;
#X connect 24 0 23 0;
#X connect 25 0 35 2;
#X connect 26 0 27 0;
#X connect 29 0 84 0;
#X connect 31 0 36 0;
#X connect 31 0 38 0;
#X connect 31 0 70 0;
#X connect 32 0 34 0;
#X connect 33 0 31 0;
#X connect 34 0 33 0;
#X connect 35 0 26 0;
#X connect 35 0 49 0;
#X connect 35 0 50 0;
#X connect 36 0 1 1;
#X connect 36 0 37 0;
#X connect 38 0 82 0;
#X connect 39 0 67 0;
#X connect 39 0 68 0;
#X connect 40 0 29 0;
#X connect 42 0 1 0;
#X connect 43 0 24 0;
#X connect 44 0 43 0;
#X connect 45 0 72 0;
#X connect 46 0 62 0;
#X connect 47 0 56 0;
#X connect 48 0 1 0;
#X connect 49 0 48 0;
#X connect 50 0 42 0;
#X connect 52 0 53 0;
#X connect 53 0 54 0;
#X connect 53 1 54 1;
#X connect 54 0 58 0;
#X connect 54 0 60 0;
#X connect 54 1 59 0;
#X connect 54 1 61 0;
#X connect 55 0 65 0;
#X connect 56 0 66 0;
#X connect 58 0 49 1;
#X connect 58 0 84 1;
#X connect 59 0 50 1;
#X connect 62 0 51 0;
#X connect 63 0 46 0;
#X connect 64 0 46 0;
#X connect 65 0 64 0;
#X connect 66 0 63 0;
#X connect 67 0 29 1;
#X connect 67 0 41 0;
#X connect 68 0 69 0;
#X connect 69 0 67 1;
#X connect 70 0 39 0;
#X connect 72 0 81 0;
#X connect 72 0 96 0;
#X connect 73 0 21 0;
#X connect 74 0 75 0;
#X connect 76 0 78 0;
#X connect 78 0 83 0;
#X connect 79 0 65 1;
#X connect 79 0 66 1;
#X connect 80 0 93 0;
#X connect 81 0 74 0;
#X connect 81 1 73 0;
#X connect 82 0 36 1;
#X connect 83 0 82 0;
#X connect 84 0 0 1;
#X connect 84 0 0 0;
#X connect 85 1 55 0;
#X connect 86 0 0 0;
#X connect 86 0 0 1;
#X connect 87 0 4 0;
#X connect 87 0 90 0;
#X connect 87 0 12 0;
#X connect 88 0 35 0;
#X connect 88 1 92 0;
#X connect 89 0 88 0;
#X connect 90 0 91 0;
#X connect 90 1 89 0;
#X connect 91 0 88 0;
#X connect 92 0 90 0;
#X connect 93 0 79 0;
#X connect 95 0 101 0;
#X connect 96 0 99 0;
#X connect 97 0 100 0;
#X connect 98 0 101 0;
#X connect 99 0 97 0;
#X connect 101 0 20 0;
